<svg width="300" height="300" viewBox="0 0 300 300" fill="none" xmlns="http://www.w3.org/2000/svg">
<path d="M16.8258 151.852C8.59189 151.852 2.73129e-06 142.222 2.73129e-06 132.963C2.73129e-06 18.8889 2.73129e-06 18.8889 2.73129e-06 18.8889C2.73129e-06 6.29629 8.23389 7.06425e-07 16.8258 7.06425e-07C28.2816 7.06425e-07 33.6515 6.29629 33.6515 18.8889C33.6515 132.963 33.6515 132.963 33.6515 132.963C33.6515 142.222 28.2816 151.852 16.8258 151.852Z" transform="translate(133.178 48)" fill="white"/>
<circle cx="17" cy="17" r="17" transform="translate(133 218.445)" fill="white"/>
<path d="M150 12.963C75.179 12.963 12.8878 73.7037 12.8878 150C12.8878 224.815 74.821 287.037 150 287.037C226.253 287.037 287.112 225.185 287.112 150C287.112 73.7037 226.253 12.963 150 12.963ZM150 300C67.3031 300 0 232.593 0 150C0 67.4074 67.3031 0 150 0C233.771 0 300 67.4074 300 150C300 232.593 233.771 300 150 300Z" fill="white"/>
</svg>
